<svg id="oam-logo-constructrion-grid" xmlns="http://www.w3.org/2000/svg" width="1152" height="960" viewBox="0 0 1152 960"><g fill="none" stroke="#203C46" stroke-miterlimit="10" opacity=".32"><path d="M129 830v2h2"/><path stroke-dasharray="4,4" d="M135 832h886"/><path d="M1023 832h2v-2"/><path stroke-dasharray="4,4" d="M1025 826V132"/><path d="M1025 130v-2h-2"/><path stroke-dasharray="4,4" d="M1019 128H133"/><path d="M131 128h-2v2"/><path stroke-dasharray="4,4" d="M129 134v694"/></g><g fill="none" stroke="#203C46" stroke-miterlimit="10" opacity=".32"><path d="M161 128v2"/><path stroke-dasharray="4,4" d="M161 134v694"/><path d="M161 830v2"/></g><g fill="none" stroke="#203C46" stroke-miterlimit="10" opacity=".32"><path d="M1025 160h-2"/><path stroke-dasharray="4,4" d="M1019 160H133"/><path d="M131 160h-2"/></g><g fill="none" stroke="#203C46" stroke-miterlimit="10" opacity=".32"><path d="M1025 192h-2"/><path stroke-dasharray="4,4" d="M1019 192H133"/><path d="M131 192h-2"/></g><g fill="none" stroke="#203C46" stroke-miterlimit="10" opacity=".32"><path d="M1025 224h-2"/><path stroke-dasharray="4,4" d="M1019 224H133"/><path d="M131 224h-2"/></g><g fill="none" stroke="#203C46" stroke-miterlimit="10" opacity=".32"><path d="M1025 256h-2"/><path stroke-dasharray="4,4" d="M1019 256H133"/><path d="M131 256h-2"/></g><g fill="none" stroke="#203C46" stroke-miterlimit="10" opacity=".32"><path d="M1025 288h-2"/><path stroke-dasharray="4,4" d="M1019 288H133"/><path d="M131 288h-2"/></g><g fill="none" stroke="#203C46" stroke-miterlimit="10" opacity=".32"><path d="M1025 320h-2"/><path stroke-dasharray="4,4" d="M1019 320H133"/><path d="M131 320h-2"/></g><g fill="none" stroke="#203C46" stroke-miterlimit="10" opacity=".32"><path d="M1025 352h-2"/><path stroke-dasharray="4,4" d="M1019 352H133"/><path d="M131 352h-2"/></g><g fill="none" stroke="#203C46" stroke-miterlimit="10" opacity=".32"><path d="M1025 384h-2"/><path stroke-dasharray="4,4" d="M1019 384H133"/><path d="M131 384h-2"/></g><g fill="none" stroke="#203C46" stroke-miterlimit="10" opacity=".32"><path d="M1025 416h-2"/><path stroke-dasharray="4,4" d="M1019 416H133"/><path d="M131 416h-2"/></g><g fill="none" stroke="#203C46" stroke-miterlimit="10" opacity=".32"><path d="M1025 448h-2"/><path stroke-dasharray="4,4" d="M1019 448H133"/><path d="M131 448h-2"/></g><g fill="none" stroke="#203C46" stroke-miterlimit="10" opacity=".32"><path d="M1025 480h-2"/><path stroke-dasharray="4,4" d="M1019 480H133"/><path d="M131 480h-2"/></g><g fill="none" stroke="#203C46" stroke-miterlimit="10" opacity=".32"><path d="M1025 512h-2"/><path stroke-dasharray="4,4" d="M1019 512H133"/><path d="M131 512h-2"/></g><g fill="none" stroke="#203C46" stroke-miterlimit="10" opacity=".32"><path d="M1025 544h-2"/><path stroke-dasharray="4,4" d="M1019 544H133"/><path d="M131 544h-2"/></g><g fill="none" stroke="#203C46" stroke-miterlimit="10" opacity=".32"><path d="M1025 576h-2"/><path stroke-dasharray="4,4" d="M1019 576H133"/><path d="M131 576h-2"/></g><g fill="none" stroke="#203C46" stroke-miterlimit="10" opacity=".32"><path d="M1025 608h-2"/><path stroke-dasharray="4,4" d="M1019 608H133"/><path d="M131 608h-2"/></g><g fill="none" stroke="#203C46" stroke-miterlimit="10" opacity=".32"><path d="M1025 640h-2"/><path stroke-dasharray="4,4" d="M1019 640H133"/><path d="M131 640h-2"/></g><g fill="none" stroke="#203C46" stroke-miterlimit="10" opacity=".32"><path d="M1025 672h-2"/><path stroke-dasharray="4,4" d="M1019 672H133"/><path d="M131 672h-2"/></g><g fill="none" stroke="#203C46" stroke-miterlimit="10" opacity=".32"><path d="M1025 704h-2"/><path stroke-dasharray="4,4" d="M1019 704H133"/><path d="M131 704h-2"/></g><g fill="none" stroke="#203C46" stroke-miterlimit="10" opacity=".32"><path d="M1025 736h-2"/><path stroke-dasharray="4,4" d="M1019 736H133"/><path d="M131 736h-2"/></g><g fill="none" stroke="#203C46" stroke-miterlimit="10" opacity=".32"><path d="M1025 768h-2"/><path stroke-dasharray="4,4" d="M1019 768H133"/><path d="M131 768h-2"/></g><g fill="none" stroke="#203C46" stroke-miterlimit="10" opacity=".32"><path d="M1025 800h-2"/><path stroke-dasharray="4,4" d="M1019 800H133"/><path d="M131 800h-2"/></g><g fill="none" stroke="#203C46" stroke-miterlimit="10" opacity=".32"><path d="M193 128v2"/><path stroke-dasharray="4,4" d="M193 134v694"/><path d="M193 830v2"/></g><g fill="none" stroke="#203C46" stroke-miterlimit="10" opacity=".32"><path d="M225 128v2"/><path stroke-dasharray="4,4" d="M225 134v694"/><path d="M225 830v2"/></g><g fill="none" stroke="#203C46" stroke-miterlimit="10" opacity=".32"><path d="M257 128v2"/><path stroke-dasharray="4,4" d="M257 134v694"/><path d="M257 830v2"/></g><g fill="none" stroke="#203C46" stroke-miterlimit="10" opacity=".32"><path d="M289 128v2"/><path stroke-dasharray="4,4" d="M289 134v694"/><path d="M289 830v2"/></g><g fill="none" stroke="#203C46" stroke-miterlimit="10" opacity=".32"><path d="M321 128v2"/><path stroke-dasharray="4,4" d="M321 134v694"/><path d="M321 830v2"/></g><g fill="none" stroke="#203C46" stroke-miterlimit="10" opacity=".32"><path d="M353 128v2"/><path stroke-dasharray="4,4" d="M353 134v694"/><path d="M353 830v2"/></g><g fill="none" stroke="#203C46" stroke-miterlimit="10" opacity=".32"><path d="M385 128v2"/><path stroke-dasharray="4,4" d="M385 134v694"/><path d="M385 830v2"/></g><g fill="none" stroke="#203C46" stroke-miterlimit="10" opacity=".32"><path d="M417 128v2"/><path stroke-dasharray="4,4" d="M417 134v694"/><path d="M417 830v2"/></g><g fill="none" stroke="#203C46" stroke-miterlimit="10" opacity=".32"><path d="M449 128v2"/><path stroke-dasharray="4,4" d="M449 134v694"/><path d="M449 830v2"/></g><g fill="none" stroke="#203C46" stroke-miterlimit="10" opacity=".32"><path d="M481 128v2"/><path stroke-dasharray="4,4" d="M481 134v694"/><path d="M481 830v2"/></g><g fill="none" stroke="#203C46" stroke-miterlimit="10" opacity=".32"><path d="M513 128v2"/><path stroke-dasharray="4,4" d="M513 134v694"/><path d="M513 830v2"/></g><g fill="none" stroke="#203C46" stroke-miterlimit="10" opacity=".32"><path d="M545 128v2"/><path stroke-dasharray="4,4" d="M545 134v694"/><path d="M545 830v2"/></g><g fill="none" stroke="#203C46" stroke-miterlimit="10" opacity=".32"><path d="M577 128v2"/><path stroke-dasharray="4,4" d="M577 134v694"/><path d="M577 830v2"/></g><g fill="none" stroke="#203C46" stroke-miterlimit="10" opacity=".32"><path d="M609 128v2"/><path stroke-dasharray="4,4" d="M609 134v694"/><path d="M609 830v2"/></g><g fill="none" stroke="#203C46" stroke-miterlimit="10" opacity=".32"><path d="M641 128v2"/><path stroke-dasharray="4,4" d="M641 134v694"/><path d="M641 830v2"/></g><g fill="none" stroke="#203C46" stroke-miterlimit="10" opacity=".32"><path d="M673 128v2"/><path stroke-dasharray="4,4" d="M673 134v694"/><path d="M673 830v2"/></g><g fill="none" stroke="#203C46" stroke-miterlimit="10" opacity=".32"><path d="M705 128v2"/><path stroke-dasharray="4,4" d="M705 134v694"/><path d="M705 830v2"/></g><g fill="none" stroke="#203C46" stroke-miterlimit="10" opacity=".32"><path d="M737 128v2"/><path stroke-dasharray="4,4" d="M737 134v694"/><path d="M737 830v2"/></g><g fill="none" stroke="#203C46" stroke-miterlimit="10" opacity=".32"><path d="M769 128v2"/><path stroke-dasharray="4,4" d="M769 134v694"/><path d="M769 830v2"/></g><g fill="none" stroke="#203C46" stroke-miterlimit="10" opacity=".32"><path d="M801 128v2"/><path stroke-dasharray="4,4" d="M801 134v694"/><path d="M801 830v2"/></g><g fill="none" stroke="#203C46" stroke-miterlimit="10" opacity=".32"><path d="M833 128v2"/><path stroke-dasharray="4,4" d="M833 134v694"/><path d="M833 830v2"/></g><g fill="none" stroke="#203C46" stroke-miterlimit="10" opacity=".32"><path d="M865 128v2"/><path stroke-dasharray="4,4" d="M865 134v694"/><path d="M865 830v2"/></g><g fill="none" stroke="#203C46" stroke-miterlimit="10" opacity=".32"><path d="M897 128v2"/><path stroke-dasharray="4,4" d="M897 134v694"/><path d="M897 830v2"/></g><g fill="none" stroke="#203C46" stroke-miterlimit="10" opacity=".32"><path d="M929 128v2"/><path stroke-dasharray="4,4" d="M929 134v694"/><path d="M929 830v2"/></g><g fill="none" stroke="#203C46" stroke-miterlimit="10" opacity=".32"><path d="M961 128v2"/><path stroke-dasharray="4,4" d="M961 134v694"/><path d="M961 830v2"/></g><g fill="none" stroke="#203C46" stroke-miterlimit="10" opacity=".32"><path d="M993 128v2"/><path stroke-dasharray="4,4" d="M993 134v694"/><path d="M993 830v2"/></g><g fill="none" stroke="#203C46" stroke-miterlimit="10" opacity=".08"><path d="M145 128v2"/><path stroke-dasharray="4,4" d="M145 134v694"/><path d="M145 830v2"/></g><g fill="none" stroke="#203C46" stroke-miterlimit="10" opacity=".08"><path d="M1025 144h-2"/><path stroke-dasharray="4,4" d="M1019 144H133"/><path d="M131 144h-2"/></g><g fill="none" stroke="#203C46" stroke-miterlimit="10" opacity=".08"><path d="M1025 176h-2"/><path stroke-dasharray="4,4" d="M1019 176H133"/><path d="M131 176h-2"/></g><g fill="none" stroke="#203C46" stroke-miterlimit="10" opacity=".08"><path d="M1025 208h-2"/><path stroke-dasharray="4,4" d="M1019 208H133"/><path d="M131 208h-2"/></g><g fill="none" stroke="#203C46" stroke-miterlimit="10" opacity=".08"><path d="M1025 240h-2"/><path stroke-dasharray="4,4" d="M1019 240H133"/><path d="M131 240h-2"/></g><g fill="none" stroke="#203C46" stroke-miterlimit="10" opacity=".08"><path d="M1025 272h-2"/><path stroke-dasharray="4,4" d="M1019 272H133"/><path d="M131 272h-2"/></g><g fill="none" stroke="#203C46" stroke-miterlimit="10" opacity=".08"><path d="M1025 304h-2"/><path stroke-dasharray="4,4" d="M1019 304H133"/><path d="M131 304h-2"/></g><g fill="none" stroke="#203C46" stroke-miterlimit="10" opacity=".08"><path d="M1025 336h-2"/><path stroke-dasharray="4,4" d="M1019 336H133"/><path d="M131 336h-2"/></g><g fill="none" stroke="#203C46" stroke-miterlimit="10" opacity=".08"><path d="M1025 368h-2"/><path stroke-dasharray="4,4" d="M1019 368H133"/><path d="M131 368h-2"/></g><g fill="none" stroke="#203C46" stroke-miterlimit="10" opacity=".08"><path d="M1025 400h-2"/><path stroke-dasharray="4,4" d="M1019 400H133"/><path d="M131 400h-2"/></g><g fill="none" stroke="#203C46" stroke-miterlimit="10" opacity=".08"><path d="M1025 432h-2"/><path stroke-dasharray="4,4" d="M1019 432H133"/><path d="M131 432h-2"/></g><g fill="none" stroke="#203C46" stroke-miterlimit="10" opacity=".08"><path d="M1025 464h-2"/><path stroke-dasharray="4,4" d="M1019 464H133"/><path d="M131 464h-2"/></g><g fill="none" stroke="#203C46" stroke-miterlimit="10" opacity=".08"><path d="M1025 496h-2"/><path stroke-dasharray="4,4" d="M1019 496H133"/><path d="M131 496h-2"/></g><g fill="none" stroke="#203C46" stroke-miterlimit="10" opacity=".08"><path d="M1025 528h-2"/><path stroke-dasharray="4,4" d="M1019 528H133"/><path d="M131 528h-2"/></g><g fill="none" stroke="#203C46" stroke-miterlimit="10" opacity=".08"><path d="M1025 560h-2"/><path stroke-dasharray="4,4" d="M1019 560H133"/><path d="M131 560h-2"/></g><g fill="none" stroke="#203C46" stroke-miterlimit="10" opacity=".08"><path d="M1025 592h-2"/><path stroke-dasharray="4,4" d="M1019 592H133"/><path d="M131 592h-2"/></g><g fill="none" stroke="#203C46" stroke-miterlimit="10" opacity=".08"><path d="M1025 624h-2"/><path stroke-dasharray="4,4" d="M1019 624H133"/><path d="M131 624h-2"/></g><g fill="none" stroke="#203C46" stroke-miterlimit="10" opacity=".08"><path d="M1025 656h-2"/><path stroke-dasharray="4,4" d="M1019 656H133"/><path d="M131 656h-2"/></g><g fill="none" stroke="#203C46" stroke-miterlimit="10" opacity=".08"><path d="M1025 688h-2"/><path stroke-dasharray="4,4" d="M1019 688H133"/><path d="M131 688h-2"/></g><g fill="none" stroke="#203C46" stroke-miterlimit="10" opacity=".08"><path d="M1025 720h-2"/><path stroke-dasharray="4,4" d="M1019 720H133"/><path d="M131 720h-2"/></g><g fill="none" stroke="#203C46" stroke-miterlimit="10" opacity=".08"><path d="M1025 752h-2"/><path stroke-dasharray="4,4" d="M1019 752H133"/><path d="M131 752h-2"/></g><g fill="none" stroke="#203C46" stroke-miterlimit="10" opacity=".08"><path d="M1025 784h-2"/><path stroke-dasharray="4,4" d="M1019 784H133"/><path d="M131 784h-2"/></g><g fill="none" stroke="#203C46" stroke-miterlimit="10" opacity=".08"><path d="M1025 816h-2"/><path stroke-dasharray="4,4" d="M1019 816H133"/><path d="M131 816h-2"/></g><g fill="none" stroke="#203C46" stroke-miterlimit="10" opacity=".08"><path d="M177 128v2"/><path stroke-dasharray="4,4" d="M177 134v694"/><path d="M177 830v2"/></g><g fill="none" stroke="#203C46" stroke-miterlimit="10" opacity=".08"><path d="M209 128v2"/><path stroke-dasharray="4,4" d="M209 134v694"/><path d="M209 830v2"/></g><g fill="none" stroke="#203C46" stroke-miterlimit="10" opacity=".08"><path d="M241 128v2"/><path stroke-dasharray="4,4" d="M241 134v694"/><path d="M241 830v2"/></g><g fill="none" stroke="#203C46" stroke-miterlimit="10" opacity=".08"><path d="M273 128v2"/><path stroke-dasharray="4,4" d="M273 134v694"/><path d="M273 830v2"/></g><g fill="none" stroke="#203C46" stroke-miterlimit="10" opacity=".08"><path d="M305 128v2"/><path stroke-dasharray="4,4" d="M305 134v694"/><path d="M305 830v2"/></g><g fill="none" stroke="#203C46" stroke-miterlimit="10" opacity=".08"><path d="M337 128v2"/><path stroke-dasharray="4,4" d="M337 134v694"/><path d="M337 830v2"/></g><g fill="none" stroke="#203C46" stroke-miterlimit="10" opacity=".08"><path d="M369 128v2"/><path stroke-dasharray="4,4" d="M369 134v694"/><path d="M369 830v2"/></g><g fill="none" stroke="#203C46" stroke-miterlimit="10" opacity=".08"><path d="M401 128v2"/><path stroke-dasharray="4,4" d="M401 134v694"/><path d="M401 830v2"/></g><g fill="none" stroke="#203C46" stroke-miterlimit="10" opacity=".08"><path d="M433 128v2"/><path stroke-dasharray="4,4" d="M433 134v694"/><path d="M433 830v2"/></g><g fill="none" stroke="#203C46" stroke-miterlimit="10" opacity=".08"><path d="M465 128v2"/><path stroke-dasharray="4,4" d="M465 134v694"/><path d="M465 830v2"/></g><g fill="none" stroke="#203C46" stroke-miterlimit="10" opacity=".08"><path d="M497 128v2"/><path stroke-dasharray="4,4" d="M497 134v694"/><path d="M497 830v2"/></g><g fill="none" stroke="#203C46" stroke-miterlimit="10" opacity=".08"><path d="M529 128v2"/><path stroke-dasharray="4,4" d="M529 134v694"/><path d="M529 830v2"/></g><g fill="none" stroke="#203C46" stroke-miterlimit="10" opacity=".08"><path d="M561 128v2"/><path stroke-dasharray="4,4" d="M561 134v694"/><path d="M561 830v2"/></g><g fill="none" stroke="#203C46" stroke-miterlimit="10" opacity=".08"><path d="M593 128v2"/><path stroke-dasharray="4,4" d="M593 134v694"/><path d="M593 830v2"/></g><g fill="none" stroke="#203C46" stroke-miterlimit="10" opacity=".08"><path d="M625 128v2"/><path stroke-dasharray="4,4" d="M625 134v694"/><path d="M625 830v2"/></g><g fill="none" stroke="#203C46" stroke-miterlimit="10" opacity=".08"><path d="M657 128v2"/><path stroke-dasharray="4,4" d="M657 134v694"/><path d="M657 830v2"/></g><g fill="none" stroke="#203C46" stroke-miterlimit="10" opacity=".08"><path d="M689 128v2"/><path stroke-dasharray="4,4" d="M689 134v694"/><path d="M689 830v2"/></g><g fill="none" stroke="#203C46" stroke-miterlimit="10" opacity=".08"><path d="M721 128v2"/><path stroke-dasharray="4,4" d="M721 134v694"/><path d="M721 830v2"/></g><g fill="none" stroke="#203C46" stroke-miterlimit="10" opacity=".08"><path d="M753 128v2"/><path stroke-dasharray="4,4" d="M753 134v694"/><path d="M753 830v2"/></g><g fill="none" stroke="#203C46" stroke-miterlimit="10" opacity=".08"><path d="M785 128v2"/><path stroke-dasharray="4,4" d="M785 134v694"/><path d="M785 830v2"/></g><g fill="none" stroke="#203C46" stroke-miterlimit="10" opacity=".08"><path d="M817 128v2"/><path stroke-dasharray="4,4" d="M817 134v694"/><path d="M817 830v2"/></g><g fill="none" stroke="#203C46" stroke-miterlimit="10" opacity=".08"><path d="M849 128v2"/><path stroke-dasharray="4,4" d="M849 134v694"/><path d="M849 830v2"/></g><g fill="none" stroke="#203C46" stroke-miterlimit="10" opacity=".08"><path d="M881 128v2"/><path stroke-dasharray="4,4" d="M881 134v694"/><path d="M881 830v2"/></g><g fill="none" stroke="#203C46" stroke-miterlimit="10" opacity=".08"><path d="M913 128v2"/><path stroke-dasharray="4,4" d="M913 134v694"/><path d="M913 830v2"/></g><g fill="none" stroke="#203C46" stroke-miterlimit="10" opacity=".08"><path d="M945 128v2"/><path stroke-dasharray="4,4" d="M945 134v694"/><path d="M945 830v2"/></g><g fill="none" stroke="#203C46" stroke-miterlimit="10" opacity=".08"><path d="M977 128v2"/><path stroke-dasharray="4,4" d="M977 134v694"/><path d="M977 830v2"/></g><g fill="none" stroke="#203C46" stroke-miterlimit="10" opacity=".08"><path d="M1009 128v2"/><path stroke-dasharray="4,4" d="M1009 134v694"/><path d="M1009 830v2"/></g><g><path fill="#F28F92" d="M129 800h32v32h-32z"/><path fill="#EB5055" d="M129 816h16v16h-16z"/></g><g><g fill="none" stroke="#203C46" stroke-miterlimit="10" opacity=".48"><path d="M578.2 257.6L577 256l-1.2 1.6"/><path stroke-dasharray="3.9894,3.9894" d="M573.5 260.9L259.3 700.7"/><path d="M258.2 702.4L257 704h2"/><path stroke-dasharray="4,4" d="M263 704h630"/><path d="M895 704h2l-1.2-1.6"/><path stroke-dasharray="3.9894,3.9894" d="M893.5 699.1L579.3 259.3"/></g><g fill="none" stroke="#203C46" stroke-miterlimit="10" opacity=".16"><path d="M759.1 0L758 1.6"/><path stroke-dasharray="4.0128,4.0128" d="M755.6 4.9L75.8 956.7"/><path d="M74.6 958.4l-1.2 1.6"/></g><g fill="none" stroke="#203C46" stroke-miterlimit="10" opacity=".16"><path d="M0 704h2"/><path stroke-dasharray="4,4" d="M6 704h1142"/><path d="M1150 704h2"/></g><g fill="none" stroke="#203C46" stroke-miterlimit="10" opacity=".16"><path d="M1078.6 960l-1.2-1.6"/><path stroke-dasharray="4.0128,4.0128" d="M1075.1 955.1L395.2 3.3"/><path d="M394 1.6L392.9 0"/></g></g><g><g fill="#203C46"><path d="M341.5 673.5c0 9.2-2.3 16.2-6.8 21.2s-11 7.4-19.5 7.4-14.9-2.5-19.5-7.4c-4.5-4.9-6.8-12-6.8-21.2s2.3-16.3 6.8-21.2c4.5-4.9 11.1-7.3 19.5-7.3 8.5 0 15 2.5 19.5 7.4 4.6 4.9 6.8 11.9 6.8 21.1zm-40.2 0c0 6.2 1.2 10.9 3.5 14 2.3 3.1 5.8 4.7 10.5 4.7 9.3 0 14-6.2 14-18.7s-4.6-18.7-13.9-18.7c-4.7 0-8.2 1.6-10.5 4.7-2.5 3.2-3.6 7.8-3.6 14zM373.8 702.1c-5 0-8.8-1.8-11.7-5.4h-.6c.4 3.5.6 5.6.6 6.1V720h-11.5v-61.1h9.4l1.6 5.5h.5c2.7-4.2 6.7-6.3 12-6.3 5 0 8.9 1.9 11.7 5.8 2.8 3.9 4.2 9.2 4.2 16.1 0 4.5-.7 8.5-2 11.8-1.3 3.3-3.2 5.9-5.6 7.6-2.5 1.8-5.3 2.7-8.6 2.7zm-3.4-34.7c-2.8 0-4.9.9-6.2 2.6-1.3 1.8-2 4.7-2 8.7v1.3c0 4.6.7 7.8 2 9.8 1.3 2 3.5 3 6.4 3 5.2 0 7.7-4.3 7.7-12.8 0-4.2-.6-7.3-1.9-9.4-1.3-2.2-3.3-3.2-6-3.2zM417.5 702.1c-6.8 0-12.1-1.9-15.9-5.7-3.8-3.8-5.7-9.1-5.7-16 0-7.1 1.8-12.6 5.3-16.5 3.5-3.9 8.4-5.8 14.7-5.8 6 0 10.6 1.7 13.9 5.1 3.3 3.4 5 8.1 5 14.2v5.6h-27.2c.1 3.3 1.1 5.9 2.9 7.7 1.8 1.8 4.4 2.8 7.6 2.8 2.5 0 4.9-.3 7.2-.8s4.6-1.4 7.1-2.5v9c-2 1-4.2 1.8-6.5 2.3-2.3.3-5.1.6-8.4.6zm-1.6-35.7c-2.4 0-4.4.8-5.7 2.3-1.4 1.6-2.2 3.8-2.4 6.6H424c-.1-2.9-.8-5.1-2.2-6.6-1.6-1.6-3.5-2.3-5.9-2.3zM481.7 701.3h-11.5v-24.8c0-3.1-.5-5.4-1.6-6.9s-2.8-2.3-5.2-2.3c-3.2 0-5.5 1.1-7 3.2s-2.2 5.7-2.2 10.8v20h-11.5v-42.4h8.8l1.5 5.4h.6c1.3-2 3.1-3.6 5.3-4.6 2.3-1 4.8-1.6 7.7-1.6 4.9 0 8.6 1.3 11.2 4 2.5 2.7 3.8 6.5 3.8 11.6v27.6zM527.8 701.3l-4-13.2h-20.1l-4 13.2h-12.6l19.5-55.7h14.3l19.6 55.7h-12.7zm-6.8-23c-3.7-12-5.8-18.7-6.2-20.3-.5-1.6-.8-2.8-1-3.7-.8 3.2-3.2 11.2-7.1 24H521zM563.8 702.1c-6.8 0-12.1-1.9-15.9-5.7-3.8-3.8-5.7-9.1-5.7-16 0-7.1 1.8-12.6 5.3-16.5 3.5-3.9 8.4-5.8 14.7-5.8 6 0 10.6 1.7 13.9 5.1 3.3 3.4 5 8.1 5 14.2v5.6h-27.2c.1 3.3 1.1 5.9 2.9 7.7 1.8 1.8 4.4 2.8 7.6 2.8 2.5 0 4.9-.3 7.2-.8s4.6-1.4 7.1-2.5v9c-2 1-4.2 1.8-6.5 2.3-2.3.3-5.1.6-8.4.6zm-1.7-35.7c-2.4 0-4.4.8-5.7 2.3-1.4 1.6-2.2 3.8-2.4 6.6h16.2c0-2.9-.8-5.1-2.2-6.6-1.5-1.6-3.4-2.3-5.9-2.3zM612.6 658.1c1.6 0 2.9.1 3.9.3l-.9 10.9c-.9-.3-2.1-.4-3.4-.4-3.7 0-6.5.9-8.6 2.8s-3.1 4.6-3.1 8v21.6H589v-42.4h8.7l1.7 7.1h.6c1.3-2.4 3.1-4.3 5.3-5.7 2.2-1.5 4.6-2.2 7.3-2.2zM621.7 648c0-3.8 2.1-5.7 6.3-5.7 4.2 0 6.3 1.9 6.3 5.7 0 1.8-.5 3.2-1.6 4.2-1 1-2.6 1.5-4.7 1.5-4.2-.1-6.3-2-6.3-5.7zm12 53.3h-11.5v-42.4h11.5v42.4zM670.5 701.3l-2.2-5.8h-.3c-1.9 2.5-3.9 4.2-6 5.1-2.1.9-4.7 1.4-8 1.4-4.1 0-7.2-1.2-9.6-3.5-2.3-2.3-3.5-5.6-3.5-9.9 0-4.5 1.6-7.8 4.7-10 3.1-2.1 7.9-3.3 14.2-3.5l7.3-.2V673c0-4.3-2.2-6.4-6.6-6.4-3.4 0-7.3 1-11.9 3.1l-3.8-7.8c4.9-2.6 10.2-3.8 16.2-3.8 5.7 0 10 1.2 13 3.7s4.5 6.2 4.5 11.3v28.3h-8zm-3.4-19.6l-4.5.2c-3.3.1-5.8.7-7.5 1.8-1.6 1.1-2.5 2.8-2.5 5.1 0 3.3 1.9 4.9 5.6 4.9 2.7 0 4.8-.8 6.4-2.3 1.6-1.5 2.4-3.6 2.4-6.1v-3.6zM699.9 701.3h-11.5v-59h11.5v59zM734.3 701.3L721 657.8h-.3c.5 8.9.7 14.8.7 17.7v25.8h-10.5v-55.5h15.9l13.1 42.4h.2l13.9-42.4h15.9v55.5H759V675c0-1.2 0-2.7.1-4.3 0-1.6.2-5.9.5-12.9h-.3L745 701.3h-10.7zM807.7 701.3l-2.2-5.8h-.3c-1.9 2.5-3.9 4.2-6 5.1-2.1.9-4.7 1.4-8 1.4-4.1 0-7.2-1.2-9.6-3.5-2.3-2.3-3.5-5.6-3.5-9.9 0-4.5 1.6-7.8 4.7-10 3.1-2.1 7.9-3.3 14.2-3.5l7.3-.2V673c0-4.3-2.2-6.4-6.6-6.4-3.4 0-7.3 1-11.9 3.1l-3.8-7.8c4.9-2.6 10.2-3.8 16.2-3.8 5.7 0 10 1.2 13 3.7s4.5 6.2 4.5 11.3v28.3h-8zm-3.4-19.6l-4.5.2c-3.3.1-5.8.7-7.5 1.8-1.6 1.1-2.5 2.8-2.5 5.1 0 3.3 1.9 4.9 5.6 4.9 2.7 0 4.8-.8 6.4-2.3 1.6-1.5 2.4-3.6 2.4-6.1v-3.6zM848.8 702.1c-5 0-8.8-1.8-11.7-5.4h-.6c.4 3.5.6 5.6.6 6.1V720h-11.5v-61.1h9.4l1.6 5.5h.5c2.7-4.2 6.7-6.3 12-6.3 5 0 8.9 1.9 11.7 5.8 2.8 3.9 4.2 9.2 4.2 16.1 0 4.5-.7 8.5-2 11.8s-3.2 5.9-5.6 7.6c-2.5 1.8-5.3 2.7-8.6 2.7zm-3.4-34.7c-2.8 0-4.9.9-6.2 2.6-1.3 1.8-2 4.7-2 8.7v1.3c0 4.6.7 7.8 2 9.8 1.3 2 3.5 3 6.4 3 5.2 0 7.7-4.3 7.7-12.8 0-4.2-.6-7.3-1.9-9.4-1.3-2.2-3.3-3.2-6-3.2z"/></g><path fill="#FFF" d="M417 480l160-224 160 224-32 96-64-16-64-48-64 48-64 16z"/><path fill="#E4E8E9" d="M497 512v52l16-4 10.1-48zM529.8 480L577 256l-80 112v112z"/><path fill="#68C39F" d="M737 480l-80-112v112z"/><path fill="#E4E8E9" d="M624.2 480h.8V323.2L577 256l47.2 224z"/><path fill="#449BB5" d="M417 480l32 96 16-4V412.8z"/><path fill="#E4E8E9" d="M641 560l64 16 21.3-64h-95.4z"/><path fill="#B8C1C4" d="M523.1 512L513 560l64-48v-32zM577 448V256l-47.2 224z"/><path fill="#D2D8DA" d="M624.2 480L577 256v192zM630.9 512L577 480v32l64 48-10.1-48z"/><path fill="#DBE0E1" d="M529.8 480l-6.7 32 53.9-32v-32z"/><path fill="#FFF" d="M523.1 512l6.7-32H497V368l-32 44.8V572l32-8v-52zM523.1 512l5.9-28zM737 480h-80V368l-32-44.8V480h-.8l6.7 32h95.4l10.7-32zM630.9 512l-5.9-28 5.9 28z"/><path fill="#EDEFF0" d="M577 448v32l53.9 32-6.7-32z"/></g></svg>